<?xml version="1.0"?>
<svg xmlns="http://www.w3.org/2000/svg" xmlns:xlink="http://www.w3.org/1999/xlink" version="1.1" id="Capa_1" x="0px" y="0px" viewBox="0 0 504.97 504.97" style="enable-background:new 0 0 504.97 504.97;" xml:space="preserve" width="512px" height="512px" class=""><g><rect x="30.779" y="166.627" style="fill:#2EA0DA" width="444.258" height="291.446" data-original="#2EA0DA" class="active-path" data-old_color="##0D6DB"/><path style="fill:#1F1F1F" d="M475.038,465.95H30.779c-4.726,0-7.877-3.151-7.877-7.877V166.627c0-4.726,3.151-7.877,7.877-7.877  h444.258c4.726,0,7.877,3.151,7.877,7.877v291.446C482.915,462.799,478.976,465.95,475.038,465.95z M38.656,450.196h428.505V174.503  H38.656V450.196z" data-original="#183651" class="" data-old_color="#202021"/><g>
	<rect x="62.287" y="198.134" style="fill:#FFFFFF;" width="381.243" height="259.938" data-original="#FFFFFF" class=""/>
	<path style="fill:#FFFFFF;" d="M306.472,419.476v30.72H198.558v-30.72H9.512v21.268c0,30.72,24.418,55.138,55.138,55.138h377.305   c30.72,0,55.138-24.418,55.138-55.138v-21.268H306.472z" data-original="#FFFFFF" class=""/>
</g><g>
	<path style="fill:#1F1F1F" d="M441.167,504.547H64.65c-34.658,0-63.015-28.357-63.015-63.015v-21.268   c0-4.726,3.151-7.877,7.877-7.877h189.834c4.726,0,7.877,3.151,7.877,7.877v22.843h92.16v-22.843c0-4.726,3.151-7.877,7.877-7.877   h189.834c4.726,0,7.877,3.151,7.877,7.877v21.268C504.182,476.19,475.826,504.547,441.167,504.547z M17.389,427.353v13.391   c0,25.994,21.268,47.262,47.262,47.262h377.305c25.994,0,47.262-21.268,47.262-47.262v-13.391H314.349v22.843   c0,4.726-3.151,7.877-7.877,7.877H198.558c-4.726,0-7.877-3.151-7.877-7.877v-22.843H17.389z" data-original="#183651" class="" data-old_color="#202021"/>
	<rect x="347.432" y="450.196" style="fill:#1F1F1F" width="15.754" height="15.754" data-original="#183651" class="" data-old_color="#202021"/>
	<rect x="386.816" y="450.196" style="fill:#1F1F1F" width="15.754" height="15.754" data-original="#183651" class="" data-old_color="#202021"/>
	<rect x="425.413" y="450.196" style="fill:#1F1F1F" width="15.754" height="15.754" data-original="#183651" class="" data-old_color="#202021"/>
	<rect x="63.862" y="450.196" style="fill:#1F1F1F" width="15.754" height="15.754" data-original="#183651" class="" data-old_color="#202021"/>
	<rect x="103.247" y="450.196" style="fill:#1F1F1F" width="15.754" height="15.754" data-original="#183651" class="" data-old_color="#202021"/>
	<rect x="142.632" y="450.196" style="fill:#1F1F1F" width="15.754" height="15.754" data-original="#183651" class="" data-old_color="#202021"/>
</g><path style="fill:#AAAAAA" d="M448.256,217.827L448.256,217.827c33.083,0,55.926-32.295,44.898-63.803L451.407,46.897H371.85  l30.72,133.908C407.296,202.86,426.201,217.827,448.256,217.827z" data-original="#F06151" class="" data-old_color="#aaaaaa"/><path style="fill:#1F1F1F" d="M448.256,225.704c-25.994,0-48.837-18.117-53.563-43.323l-30.72-133.908  c-0.788-2.363,0-4.726,1.575-6.302c1.575-1.575,3.938-3.151,6.302-3.151h79.557c3.151,0,6.302,2.363,7.089,4.726l41.748,107.914  C513.635,187.894,486.853,225.704,448.256,225.704z M381.302,54.774l28.357,123.668c3.938,18.117,20.48,31.508,38.597,31.508  c27.569,0,46.474-26.782,37.022-52.775l-40.172-102.4L381.302,54.774L381.302,54.774z" data-original="#183651" class="" data-old_color="#202021"/><path style="fill:#FFFFFF;" d="M448.256,186.319c-7.089,0-14.178-5.514-15.754-12.603l-22.055-95.311h18.905l33.871,87.434  C467.161,175.291,460.072,186.319,448.256,186.319z" data-original="#FFFFFF" class=""/><path style="fill:#888888" d="M349.007,217.827h3.151c29.932,0,52.775-27.569,46.474-57.502L371.85,46.897h-80.345l9.452,126.818  C303.321,198.922,323.801,217.827,349.007,217.827z" data-original="#FBBD5E" class="" data-old_color="#FBBD5E"/><path style="fill:#1F1F1F" d="M351.37,225.704h-3.151c-29.145,0-52.775-22.843-55.138-51.2l-9.452-126.818  c0-2.363,0.788-4.726,2.363-6.302c1.575-1.575,3.938-2.363,5.514-2.363h79.557c3.938,0,7.089,2.363,7.877,6.302l26.782,113.428  c3.938,16.542-0.788,33.083-11.028,46.474C384.453,218.614,368.699,225.704,351.37,225.704z M300.17,54.774l9.452,118.942  c1.575,20.48,18.905,37.022,39.385,37.022h3.151c11.815,0,22.843-5.514,30.72-14.966c7.877-9.452,10.24-21.268,7.877-33.083  L365.549,54.774H300.17z" data-original="#183651" class="" data-old_color="#202021"/><path style="fill:#FFFFFF;" d="M333.253,172.14l-7.089-92.948h20.48l20.48,89.009c1.575,8.665-5.514,18.905-15.754,18.905  C339.555,186.319,333.253,180.017,333.253,172.14z" data-original="#FFFFFF" class=""/><path style="fill:#AAAAAA" d="M249.758,217.827h3.938c27.569,0,48.837-23.631,47.262-50.412l-9.452-120.517h-79.557l-9.452,120.517  C200.921,194.984,222.189,217.827,249.758,217.827z" data-original="#F06151" class="" data-old_color="#aaaaaa"/><path style="fill:#1F1F1F" d="M253.696,225.704h-3.938c-14.966,0-29.932-6.302-40.172-17.329  c-10.24-11.028-15.754-25.994-14.966-41.748l9.452-120.517c0-3.938,3.938-7.089,7.877-7.089h79.557c3.938,0,7.877,3.151,7.877,7.089  l9.452,120.517c0.788,14.966-3.938,30.72-14.966,41.748C283.629,219.402,269.45,225.704,253.696,225.704z M219.038,54.774  l-8.665,112.64c-0.788,11.028,3.151,21.268,10.24,29.932c7.877,7.877,18.117,12.603,29.145,12.603h3.938  c11.028,0,21.268-4.726,29.145-12.603s11.028-18.905,10.24-29.932l-8.665-112.64H219.038z" data-original="#183651" class="" data-old_color="#202021"/><path style="fill:#FFFFFF;" d="M249.758,186.319c-9.452,0-16.542-7.877-15.754-17.329l7.089-91.372h21.268l7.089,92.16  c0.788,5.514-2.363,10.24-3.938,11.815c-1.575,1.575-5.514,4.726-11.815,4.726H249.758z" data-original="#FFFFFF" class=""/><path style="fill:#888888" d="M152.084,217.827h3.151c25.206,0,45.686-18.905,47.262-44.111l9.452-126.818h-79.557L105.61,160.325  C99.309,190.257,122.152,217.827,152.084,217.827z" data-original="#FBBD5E" class="" data-old_color="#FBBD5E"/><path style="fill:#1F1F1F" d="M155.235,225.704h-3.151c-16.542,0-32.295-7.877-43.323-20.48  c-11.028-12.603-14.178-29.932-11.028-46.474l26.782-113.428c0.788-3.938,3.938-6.302,7.877-6.302h79.557  c2.363,0,3.938,0.788,5.514,2.363c1.575,1.575,2.363,3.938,2.363,6.302l-9.452,126.818  C208.01,203.648,183.592,225.704,155.235,225.704z M138.693,54.774L113.487,161.9c-2.363,11.815,0,23.631,7.877,33.083  c7.877,9.452,18.905,14.966,30.72,14.966h3.151c20.48,0,37.809-15.754,39.385-36.234l9.452-118.942  C204.072,54.774,138.693,54.774,138.693,54.774z" data-original="#183651" class="" data-old_color="#202021"/><path style="fill:#FFFFFF;" d="M152.084,186.319c-10.24,0-17.329-9.452-15.754-18.905l20.48-89.009h20.48l-7.089,92.948  C170.201,180.017,164.687,186.319,152.084,186.319z" data-original="#FFFFFF" class=""/><path style="fill:#AAAAAA" d="M55.198,217.827L55.198,217.827c22.055,0,41.748-15.754,46.474-37.022l30.72-133.908H52.835  L11.087,154.811C-0.728,185.531,22.115,217.827,55.198,217.827z" data-original="#F06151" class="" data-old_color="#aaaaaa"/><path style="fill:#1F1F1F" d="M55.198,225.704c-38.597,0-64.591-37.809-51.988-74.043L44.958,44.534  c0.788-3.151,3.938-4.726,7.089-4.726h79.557c2.363,0,4.726,0.788,6.302,3.151c1.575,1.575,2.363,3.938,1.575,6.302l-30.72,133.908  C104.035,207.587,81.192,225.704,55.198,225.704z M58.349,54.774l-40.172,102.4c-9.452,25.206,9.452,52.775,37.022,52.775  c18.117,0,34.658-13.391,38.597-30.72l28.357-124.455H58.349z" data-original="#183651" class="" data-old_color="#202021"/><g>
	<path style="fill:#FFFFFF;" d="M55.198,186.319c-11.028,0-18.905-11.028-14.966-21.268l33.871-86.646h18.905l-22.055,95.311   C69.376,181.593,63.075,186.319,55.198,186.319z" data-original="#FFFFFF" class=""/>
	<rect x="52.835" y="8.3" style="fill:#FFFFFF;" width="398.572" height="38.597" data-original="#FFFFFF" class=""/>
</g><path style="fill:#1F1F1F" d="M451.407,54.774H52.835c-4.726,0-7.877-3.151-7.877-7.877V8.3c0-4.726,3.151-7.877,7.877-7.877  h398.572c4.726,0,7.877,3.151,7.877,7.877v38.597C459.284,51.624,455.345,54.774,451.407,54.774z M60.712,39.02H443.53V16.177  H60.712V39.02z" data-original="#183651" class="" data-old_color="#202021"/><polygon style="fill:#E0E4E8" points="255.272,265.876 214.312,331.254 235.579,331.254 235.579,389.544 274.176,389.544   274.176,331.254 296.232,331.254 " data-original="#E0E4E8" class=""/></g> </svg>
